<?xml version="1.0" encoding="UTF-8" standalone="no"?>
<!DOCTYPE svg PUBLIC "-//W3C//DTD SVG 1.1//EN" "http://www.w3.org/Graphics/SVG/1.1/DTD/svg11.dtd">
<svg width="100%" height="100%" viewBox="0 0 48 48" version="1.1" xmlns="http://www.w3.org/2000/svg" xmlns:xlink="http://www.w3.org/1999/xlink" xml:space="preserve" xmlns:serif="http://www.serif.com/" style="fill-rule:evenodd;clip-rule:evenodd;stroke-linejoin:round;stroke-miterlimit:2;">
    <g id="g1" transform="matrix(2,0,0,2,0.112436,0)">
        <path id="path8" d="M22,4L18,8L10,8L10,11L14,11L14,15L10,15L10,20L6,24L10.05,24C10.354,24 10.622,23.805 10.716,23.516L11.44,21.288C11.509,21.075 11.676,20.908 11.89,20.839L12.446,20.658C12.659,20.589 12.893,20.626 13.074,20.757L14.969,22.134C15.214,22.313 15.547,22.313 15.792,22.134L17.491,20.9C17.736,20.722 17.839,20.406 17.745,20.118L17.021,17.889C16.952,17.676 16.989,17.443 17.121,17.261L17.465,16.788C17.597,16.607 17.807,16.499 18.031,16.499L20.374,16.5C20.677,16.5 20.946,16.304 21.039,16.015L21.688,14.019C21.782,13.73 21.679,13.414 21.434,13.236L19.539,11.859C19.357,11.727 19.25,11.517 19.25,11.293L19.25,10.707C19.25,10.483 19.357,10.273 19.539,10.141L21.712,8.562C21.893,8.431 22,8.22 22,7.996L22,4Z" style="fill:rgb(65,143,222);"/>
        <path id="path7" d="M18,0L14,4L18,4L18,8L22,4L22,0L18,0ZM6,16L2,20L2,24L6,24L10,20L6,20L6,16Z" style="fill:rgb(255,88,93);"/>
        <path id="path3" d="M6,0L2,4L2,20L6,16L6,4L14,4L18,0L6,0Z" style="fill:rgb(203,51,59);"/>
        <path id="path9" d="M6,20L10,20L10,15L14,15L14,11L10,11L10,8L18,8L18,4L6,4L6,20Z" style="fill:rgb(254,254,254);"/>
        <g transform="matrix(0.0310753,0,0,0.0310753,10.9928,10)">
            <path d="M447.05,428L337.45,318.4C366.85,284.6 384.65,240.5 384.65,192.3C384.65,86.2 298.35,0 192.35,0C86.25,0 0.05,86.3 0.05,192.3C0.05,298.3 86.35,384.6 192.35,384.6C240.55,384.6 284.65,366.8 318.45,337.4L428.05,447C430.65,449.6 434.15,451 437.55,451C440.95,451 444.45,449.7 447.05,447C452.25,441.8 452.25,433.2 447.05,428ZM26.95,192.3C26.95,101.1 101.15,27 192.25,27C283.45,27 357.55,101.2 357.55,192.3C357.55,283.4 283.45,357.7 192.25,357.7C101.15,357.7 26.95,283.5 26.95,192.3Z" style="fill-rule:nonzero;"/>
        </g>
        <g transform="matrix(0.503865,0,0,0.503865,-0.287155,-0.00747149)">
            <g id="Layer1">
                <circle cx="34.194" cy="31.746" r="10.194" style="fill:rgb(0,225,255);fill-opacity:0.4;"/>
            </g>
        </g>
    </g>
</svg>
